<svg id="Слой_2" data-name="Слой 2" xmlns="http://www.w3.org/2000/svg" viewBox="0 0 528.72 375.65"><defs><style>.cls-1,.cls-2{fill:#fff;}.cls-1{fill-rule:evenodd;}</style></defs><title>logo_down</title><polygon class="cls-1" points="267.13 278.58 221.81 278.58 221.81 247.23 210.81 247.23 210.81 285.73 267.13 285.73 267.13 278.58"/><path class="cls-1" d="M958.13,946.93l28.6.05c11.88,0,17.82-3.85,17.82-11.6a10,10,0,0,0-4.95-9c-3.3-2-7.59-3.08-12.87-3.08H947.41v38.5h10.72Zm0-16.5h28c4.4,0,7.15,1.81,7.15,5,0,3.46-2.36,5.22-7.15,5.22h-28Z" transform="translate(-803.09 -676.04)"/><rect class="cls-2" x="517.99" y="247.23" width="10.73" height="38.5"/><polygon class="cls-1" points="75.08 285.73 131.94 285.73 131.94 278.58 85.8 278.58 85.8 269.23 124.25 269.23 124.25 262.63 85.8 262.63 85.8 254.38 131.94 254.38 131.94 247.23 75.08 247.23 75.08 285.73"/><polygon class="cls-1" points="334.51 285.73 334.51 254.38 362.01 254.38 362.01 247.23 296.01 247.23 296.01 254.38 323.51 254.38 323.51 285.73 334.51 285.73"/><rect class="cls-2" x="276.21" y="247.23" width="10.73" height="38.5"/><polygon class="cls-1" points="0 254.38 27.5 254.38 27.5 285.73 38.5 285.73 38.5 254.38 66 254.38 66 247.23 0 247.23 0 254.38"/><path class="cls-1" d="M1213.17,938.62c-13.91-1.15-30,.72-30-5.11-.06-1.71,1.2-3,3.68-3.8s6.87-1.21,13.2-1.21A89,89,0,0,1,1216,930c5.45,1,9.13,2.47,11,4.45h3v-9q-12-3.79-30.64-3.79c-18.31,0-27.5,4-27.5,12.1,0,10,12.32,11.55,24.48,12s24.53-.38,24.47,4.51c0,4.13-5.11,6.27-17.43,6.27a80.54,80.54,0,0,1-19.36-1.92,40.22,40.22,0,0,1-12.38-5.45l-.76,8.14c6.32,3.69,17.71,6.11,31.73,6.11,20,0,30-3.74,30-13.26C1232.7,941.81,1223.51,939.23,1213.17,938.62Z" transform="translate(-803.09 -676.04)"/><polygon class="cls-1" points="507.49 247.23 489.88 247.23 454.3 264.06 454.3 247.23 443.57 247.23 443.57 285.73 454.3 285.73 454.3 271.98 465.8 266.65 492.91 285.73 508.92 285.73 474.15 262.74 507.49 247.23"/><path class="cls-1" d="M1021.07,859.57h10V750.93h48.46V887.46h10V750.93H1138V859.57h10V750.93h22v-10h-22v-1.42a63.47,63.47,0,0,0-126.93,0v1.42H999v10h22Zm10-120.06a53.47,53.47,0,0,1,106.93,0v1.42H1031.07Z" transform="translate(-803.09 -676.04)"/><path class="cls-1" d="M1004.09,1000.23a11.06,11.06,0,0,0-1.35-1.18,1.77,1.77,0,0,0-1.09-.46,11.88,11.88,0,0,1-.3,2.12c-.16.75-.35,1.48-.54,2.21s-.38,1.43-.53,2.1a11.09,11.09,0,0,0-.27,1.77,1.8,1.8,0,0,0,.25.84,7.31,7.31,0,0,0,.61,1,5.34,5.34,0,0,0,.8.84,1.57,1.57,0,0,0,.8.41,9.2,9.2,0,0,1,.68-1.82l.94-1.84c.31-.63.62-1.23.91-1.82a11.19,11.19,0,0,0,.66-1.76,2.47,2.47,0,0,0-.46-1A9.13,9.13,0,0,0,1004.09,1000.23Z" transform="translate(-803.09 -676.04)"/><path class="cls-1" d="M1066,998.62a1.7,1.7,0,0,0-1.09-.48,11.74,11.74,0,0,1-.3,2.07c-.16.75-.35,1.48-.54,2.21s-.38,1.43-.55,2.1a9.43,9.43,0,0,0-.3,1.82,2.08,2.08,0,0,0,.25.86,4.86,4.86,0,0,0,.64,1,7.93,7.93,0,0,0,.82.82,1.65,1.65,0,0,0,.8.41,9.69,9.69,0,0,1,.68-1.85c.31-.62.62-1.23.94-1.84s.61-1.21.88-1.8a8.55,8.55,0,0,0,.6-1.71,1.84,1.84,0,0,0-.41-1,10.89,10.89,0,0,0-2.42-2.59Z" transform="translate(-803.09 -676.04)"/><path class="cls-1" d="M991.36,1013.87a11.26,11.26,0,0,0,.91-1.43,8.33,8.33,0,0,0,.61-1.44c.14-.44.12-.69-.07-.75-2.7.52-5.36.94-8,1.28s-5.21.76-7.76,1.27q1.5-2.82,3.07-5.42t3.12-4.91a1.74,1.74,0,0,0,0-1,4.31,4.31,0,0,0-.43-1,4.66,4.66,0,0,0-.73-.94,7.54,7.54,0,0,0-.89-.75q5.7-.9,11.29-1.34t11.34-.93c.22,0,.44-.29.69-.76a10.59,10.59,0,0,0,.64-1.61,9.81,9.81,0,0,0,.36-1.87,4.14,4.14,0,0,0-.09-1.55,19.33,19.33,0,0,1-3.55.66q-2.5.3-6,.64t-7.53.84c-2.74.34-5.51.76-8.32,1.28s-5.57,1.16-8.28,1.93a42.14,42.14,0,0,0-7.45,2.87,23,23,0,0,0-5.76,4,12.18,12.18,0,0,0-3.26,5.45,15.37,15.37,0,0,0-.47,2.27,7.25,7.25,0,0,0,0,1.73,5.3,5.3,0,0,0,.39,1.48,12.77,12.77,0,0,0,.71,1.44,4.12,4.12,0,0,0,1.7,1.09,8.05,8.05,0,0,0,2,.46,5.59,5.59,0,0,0,1.62-.05c.44-.09.65-.23.62-.41a8.16,8.16,0,0,1-3.08-3.6,4.71,4.71,0,0,1,.05-3.41,8.44,8.44,0,0,1,2.27-3.08,22.68,22.68,0,0,1,3.62-2.59,33.44,33.44,0,0,1,7.66-3.21l3.27-.78q1.65-.36,3.33-.63c-1.09,2-2.32,4.27-3.67,6.9s-2.71,5.39-4.07,8.31a30.82,30.82,0,0,0-5.92,2.73,24.84,24.84,0,0,0-5.33,4.33,8.9,8.9,0,0,0-1.39,1.89,12.85,12.85,0,0,0-1.16,2.61,10,10,0,0,0-.5,2.81,3.89,3.89,0,0,0,.64,2.39,1.63,1.63,0,0,0,.63.41,4.63,4.63,0,0,0,.87.25,2,2,0,0,0,.7,0c.2,0,.27-.16.21-.34a3.61,3.61,0,0,1-1-2.19,6.52,6.52,0,0,1,.23-2.41,9.34,9.34,0,0,1,.94-2.19,9,9,0,0,1,1.09-1.55,19.66,19.66,0,0,1,4-3.19,28.75,28.75,0,0,1,4.5-2.18q-1.17,2.64-2.18,5.26t-1.78,5c-.51,1.61-.93,3.14-1.25,4.6a21.15,21.15,0,0,0-.52,4,1.77,1.77,0,0,0,.27,1.09,9.34,9.34,0,0,0,.84,1.39,9.13,9.13,0,0,0,.89,1.07c.27.28.43.29.46,0a33,33,0,0,1,1.07-5.06q.79-2.82,2-5.94t2.65-6.44c1-2.22,2-4.42,3.16-6.61a56.08,56.08,0,0,1,8.06-1.11l7.24-.48C990.76,1014.55,991,1014.31,991.36,1013.87Z" transform="translate(-803.09 -676.04)"/><path class="cls-1" d="M1115.68,1014.58a1.67,1.67,0,0,0,.09-1,8.76,8.76,0,0,0-.29-1.35,4.48,4.48,0,0,0-.48-1.07c-.18-.27-.33-.33-.46-.18a5.76,5.76,0,0,1-.63,1.91,29.56,29.56,0,0,1-1.57,2.78c-.66,1-1.41,2.14-2.26,3.33s-1.73,2.35-2.64,3.5-1.84,2.27-2.78,3.35-1.82,2-2.64,2.85a21.11,21.11,0,0,1-2.23,2,3.69,3.69,0,0,1-1.55.8q-.4,0-.18-1a19.25,19.25,0,0,1,.84-2.67c.41-1.07.89-2.27,1.44-3.59s1.09-2.59,1.63-3.81,1-2.3,1.49-3.28.73-1.67.88-2.09a1.91,1.91,0,0,0-.18-1.5,4.78,4.78,0,0,0-1.09-1.37,5.26,5.26,0,0,0-1.44-.89,1.46,1.46,0,0,0-1.2-.07c-.28,1-.66,2.19-1.16,3.56s-1.06,2.77-1.67,4.23v0c-.54.91-1.19,2-1.93,3.25s-1.56,2.5-2.44,3.71a25.24,25.24,0,0,1-2.8,3.28,7.38,7.38,0,0,1-3,1.92h-.54c-.55,0-.82-.39-.82-1.07a10,10,0,0,1,.45-2.62,34.11,34.11,0,0,1,1.23-3.51c.52-1.27,1-2.51,1.59-3.71s1-2.27,1.48-3.21.74-1.63.89-2a1.91,1.91,0,0,0-.18-1.5,4.78,4.78,0,0,0-1.09-1.37,5.26,5.26,0,0,0-1.44-.89,1.46,1.46,0,0,0-1.2-.07c-.31,1.13-.72,2.44-1.26,3.94s-1.08,3-1.66,4.6l-.3.85a.45.45,0,0,0-.15.13c-.34.61-.7,1.25-1.1,1.91s-.83,1.36-1.32,2.05a24.5,24.5,0,0,1-3,3.56,17.63,17.63,0,0,1-2.93,2.34,9.27,9.27,0,0,1-2.74,1.19,5.16,5.16,0,0,1-2.3.06,2.92,2.92,0,0,1-1.36-.68,3.62,3.62,0,0,1-.87-1.18,5.9,5.9,0,0,1-.45-1.46,6.22,6.22,0,0,1-.1-1.55,22.07,22.07,0,0,0,7.34-3.53,18.86,18.86,0,0,0,5.37-6.12,6.12,6.12,0,0,0,1-2.39,3.48,3.48,0,0,0-.21-2,3,3,0,0,0-1.16-1.35,3.51,3.51,0,0,0-1.89-.5,9.27,9.27,0,0,0-3.37.55,15.1,15.1,0,0,0-3.18,1.55,20.26,20.26,0,0,0-2.74,2.07,15,15,0,0,0-2,2.07,25,25,0,0,0-3.31,5.58,12.73,12.73,0,0,0-.93,5.17,6.26,6.26,0,0,0,1.87,4.46,6.69,6.69,0,0,0,4.82,1.64l1.42,0a10.92,10.92,0,0,0,2-.27,10.67,10.67,0,0,0,2.33-.87,11.78,11.78,0,0,0,2.55-1.8,23.19,23.19,0,0,0,2.39-2.48c.71-.87,1.36-1.73,2-2.6l.33-.5c-.27.93-.48,1.78-.63,2.53a9.71,9.71,0,0,0-.18,2.23,5.19,5.19,0,0,0,.41,1.87,3.22,3.22,0,0,0,1,1.32,2.86,2.86,0,0,0,1.62.55,5.27,5.27,0,0,0,1.52-.21,8.34,8.34,0,0,0,1.33-.5,7.39,7.39,0,0,0,1.11-.66c.34-.24.61-.46.82-.64a14.74,14.74,0,0,0,2.67-2.87c.8-1.12,1.57-2.3,2.3-3.55a29.26,29.26,0,0,0-1.19,3,7.55,7.55,0,0,0-.52,2.39,4.24,4.24,0,0,0,.27,1.75,2.24,2.24,0,0,0,.87,1.09,2.21,2.21,0,0,0,1.25.37,6.65,6.65,0,0,0,3.5-1,21.66,21.66,0,0,0,3.81-2.82,46.05,46.05,0,0,0,3.82-3.92q1.89-2.16,3.58-4.37t3.09-4.21C1114.26,1016.61,1115.05,1015.49,1115.68,1014.58Zm-47.18,10.7a18.33,18.33,0,0,1,1.28-3.35,21.86,21.86,0,0,1,2.23-3.66,17.2,17.2,0,0,1,3-3.14,8.12,8.12,0,0,1,3.6-1.73c.85-.16,1.38.08,1.6.7a3,3,0,0,1-.32,2.26,17.77,17.77,0,0,1-4.78,5.76,19.29,19.29,0,0,1-6.65,3.34A.39.39,0,0,1,1068.5,1025.28Z" transform="translate(-803.09 -676.04)"/><path class="cls-1" d="M1034.07,1034.14a11,11,0,0,0,2-.27,10.61,10.61,0,0,0,2.32-.87,11.78,11.78,0,0,0,2.55-1.8,22.36,22.36,0,0,0,2.4-2.48c.71-.87,1.36-1.73,2-2.6s1.13-1.69,1.62-2.48.94-1.52,1.37-2.18a.64.64,0,0,0,.09-.55.75.75,0,0,0-.3-.36.66.66,0,0,0-.45-.12.67.67,0,0,0-.44.25c-.33.61-.69,1.25-1.09,1.91s-.83,1.36-1.32,2.05a24.5,24.5,0,0,1-3,3.56,17.28,17.28,0,0,1-2.94,2.34,9.11,9.11,0,0,1-2.73,1.19,5.16,5.16,0,0,1-2.3.06,3,3,0,0,1-1.37-.68,3.74,3.74,0,0,1-.86-1.18,5.92,5.92,0,0,1-.46-1.46,6.73,6.73,0,0,1-.09-1.55,22,22,0,0,0,7.33-3.53,18.78,18.78,0,0,0,5.38-6.12,6.28,6.28,0,0,0,1-2.39,3.58,3.58,0,0,0-.21-2,3,3,0,0,0-1.16-1.35,3.51,3.51,0,0,0-1.89-.5,9.24,9.24,0,0,0-3.37.55,15.41,15.41,0,0,0-3.19,1.55,20.79,20.79,0,0,0-2.73,2.07,15.79,15.79,0,0,0-2,2.07,24.52,24.52,0,0,0-3.3,5.58c-.1.27-.19.53-.27.8s-.37.57-.57.86a21.36,21.36,0,0,1-3.62,4.24,15.76,15.76,0,0,1-3.17,2.23,2.09,2.09,0,0,1-.82.23.69.69,0,0,1-.47-.14.6.6,0,0,1-.21-.32,1.39,1.39,0,0,1,0-.32,16.28,16.28,0,0,1,.6-3.44,26.75,26.75,0,0,1,1.18-3.18c.49-1.11,1-2.37,1.69-3.78s1.33-3.15,2.09-5.22a1.67,1.67,0,0,0,0-1.14,4.76,4.76,0,0,0-.67-1.2,4.14,4.14,0,0,0-1-1,1.91,1.91,0,0,0-1.07-.39,7.42,7.42,0,0,0-2.41.6,12.43,12.43,0,0,0-2.32,1.29,22.93,22.93,0,0,0-2.24,1.8c-.72.67-1.41,1.35-2,2,.18-.33.34-.65.5-.95a5.56,5.56,0,0,0,.36-1,1.91,1.91,0,0,0-.18-1.5,4.78,4.78,0,0,0-1.09-1.37,5.26,5.26,0,0,0-1.44-.89,1.49,1.49,0,0,0-1.21-.07q-.76,2.6-1.77,5.15t-1.91,5.12v0l-1.88,2.65c-.75,1-1.54,2-2.37,3a21.85,21.85,0,0,1-2.67,2.53,8.78,8.78,0,0,1-3.05,1.57h-.5c-.55,0-.78-.39-.7-1.07a10.59,10.59,0,0,1,.72-2.62,34.53,34.53,0,0,1,1.62-3.51c.67-1.27,1.33-2.51,2-3.71s1.26-2.27,1.82-3.21a20.72,20.72,0,0,0,1.12-2,1.83,1.83,0,0,0,0-1.5,4.35,4.35,0,0,0-1-1.37,4.31,4.31,0,0,0-1.37-.89,1.46,1.46,0,0,0-1.2-.07c-.43,1.13-1,2.44-1.69,3.94l-2.14,4.6c-.73,1.57-1.41,3.09-2.05,4.58a30.77,30.77,0,0,0-1.41,3.87,9,9,0,0,0-.41,2.23,5.25,5.25,0,0,0,.23,1.87,2.85,2.85,0,0,0,.86,1.32,2.54,2.54,0,0,0,1.55.55,5.65,5.65,0,0,0,1.53-.21,9.09,9.09,0,0,0,1.39-.5,7.15,7.15,0,0,0,1.13-.66c.34-.24.63-.46.87-.64a26.84,26.84,0,0,0,4.78-4.67c.53-.66,1.05-1.37,1.57-2.08-.12.41-.25.81-.36,1.22a24.46,24.46,0,0,0-.84,5.26,1.48,1.48,0,0,0,.54.82,6.48,6.48,0,0,0,1.12.8,5.46,5.46,0,0,0,1.11.47c.34.1.51,0,.51-.18a28.14,28.14,0,0,1,1-5.71,42.69,42.69,0,0,1,1.91-5.35q1.46-1.79,2.82-3.24t3.15-3.05a10,10,0,0,1,2.36-1.66c.52-.2.84-.15,1,.16a2.43,2.43,0,0,1-.09,1.43,16.59,16.59,0,0,1-.78,2.17q-.76,1.86-1.41,3.39c-.42,1-.78,2-1.07,2.82s-.52,1.69-.7,2.46a11.76,11.76,0,0,0-.32,2.35,5.4,5.4,0,0,0,.27,2,3.83,3.83,0,0,0,.87,1.41,3.47,3.47,0,0,0,1.29.82,4.53,4.53,0,0,0,1.53.27,5.09,5.09,0,0,0,2.82-1,16.24,16.24,0,0,0,2.76-2.34,30.56,30.56,0,0,0,2.39-2.85c.24-.32.45-.62.66-.91a9.55,9.55,0,0,0,0,1.07,6.3,6.3,0,0,0,1.86,4.46,6.73,6.73,0,0,0,4.83,1.64Zm-2.82-8.86a17.63,17.63,0,0,1,1.28-3.35,21.86,21.86,0,0,1,2.23-3.66,17.2,17.2,0,0,1,3-3.14,8.12,8.12,0,0,1,3.6-1.73c.85-.16,1.38.08,1.59.7a3,3,0,0,1-.31,2.26,17.68,17.68,0,0,1-4.79,5.76,19.2,19.2,0,0,1-6.65,3.34A.41.41,0,0,1,1031.25,1025.28Z" transform="translate(-803.09 -676.04)"/><path class="cls-1" d="M1061,1045.07q-1.77-1.23-3.57-2.45a42.8,42.8,0,0,0-3.71-2.27c.7-1.34,1.39-2.74,2.07-4.23s1.37-3.08,2.07-4.78l6.79-16.31a1.92,1.92,0,0,0-.18-1.5,4.77,4.77,0,0,0-1.1-1.36,4.85,4.85,0,0,0-1.43-.89,1.49,1.49,0,0,0-1.21-.07q-.87,2.91-1.84,5.76c-.66,1.9-1.29,3.67-1.92,5.33s-1.2,3.14-1.73,4.46-1,2.36-1.25,3.12q-.91,2.32-1.89,4.51t-2.07,4.23c-.7-.28-1.35-.5-2-.7a15.25,15.25,0,0,0-1.94-.5c-.68-.14-1.41-.24-2.18-.32a26.53,26.53,0,0,0-2.67-.11,14.6,14.6,0,0,0-4.53.7,12.75,12.75,0,0,0-3.8,2,10,10,0,0,0-2.62,2.95,7.34,7.34,0,0,0-1,3.7,4.33,4.33,0,0,0,.71,2.52,5.48,5.48,0,0,0,1.82,1.66,8.83,8.83,0,0,0,2.53.93,13.78,13.78,0,0,0,2.87.3,18.09,18.09,0,0,0,4.71-.57,14.83,14.83,0,0,0,3.89-1.64,15.62,15.62,0,0,0,3.28-2.61,23.74,23.74,0,0,0,2.83-3.54c.82.51,1.66,1.1,2.52,1.75s1.83,1.34,2.9,2.07a1.68,1.68,0,0,0,1.11,0,7.49,7.49,0,0,0,1.53-.53,3.38,3.38,0,0,0,1.11-.77C1061.45,1045.57,1061.4,1045.31,1061,1045.07Zm-15.07-.14a17.49,17.49,0,0,1-2.8,2.78,13,13,0,0,1-3.12,1.82,9.18,9.18,0,0,1-3.46.66,10.7,10.7,0,0,1-1.91-.18,6,6,0,0,1-1.85-.64,4,4,0,0,1-1.39-1.23,3.4,3.4,0,0,1-.54-2,3.79,3.79,0,0,1,.93-2.78,7.79,7.79,0,0,1,2.6-1.93,14.08,14.08,0,0,1,3.43-1.12,18.67,18.67,0,0,1,3.51-.36,20.11,20.11,0,0,1,3.89.41,18.16,18.16,0,0,1,3.26,1A36.32,36.32,0,0,1,1046,1044.93Z" transform="translate(-803.09 -676.04)"/><path class="cls-1" d="M1212.87,1012.12a5.26,5.26,0,0,0-1.44-.89,1.46,1.46,0,0,0-1.2-.07q-.78,2.6-1.6,5.06c-.54,1.64-1.11,3.22-1.68,4.74l-1.8,3a34.29,34.29,0,0,1-2.1,3.05,17.15,17.15,0,0,1-2.43,2.59,7.81,7.81,0,0,1-2.83,1.6h-.54c-.55,0-.82-.39-.82-1.07a10,10,0,0,1,.45-2.62q.46-1.59,1.23-3.51c.52-1.27,1.05-2.51,1.6-3.71s1-2.27,1.48-3.21.73-1.63.88-2a1.83,1.83,0,0,0-.18-1.5,4.78,4.78,0,0,0-1.09-1.37,5.12,5.12,0,0,0-1.44-.89,1.46,1.46,0,0,0-1.2-.07c-.31,1.13-.72,2.44-1.25,3.94s-1.09,3-1.67,4.6l-.32.91-.09.07c-.33.61-.75,1.32-1.25,2.14s-1,1.67-1.66,2.55a16,16,0,0,1-1.73,2.05,17.53,17.53,0,0,1-1.91,1.66,10.77,10.77,0,0,1-1.8,1.1,3,3,0,0,1-1.44.34,1.53,1.53,0,0,1-1.16-.43,1.28,1.28,0,0,1-.2-1,5.17,5.17,0,0,1,.45-1.41,13,13,0,0,1,.87-1.57c.33-.53.68-1,1-1.55s.7-.93,1-1.3q1.32-1.77,2.68-3.44t2.37-3.12a15.06,15.06,0,0,0,1.48-2.57,1.82,1.82,0,0,0,0-1.8l-.27-.27c-.15-.15-.33-.3-.52-.46l-.55-.41a.79.79,0,0,0-.39-.18,3.88,3.88,0,0,1-1,.71c-.53.29-1.15.58-1.85.89s-1.42.6-2.16.88-1.42.53-2,.73a10.65,10.65,0,0,1-1.41.39c-.33.06-.44,0-.32-.18l1.92-2.78a3.38,3.38,0,0,0,.31-1.71,2.44,2.44,0,0,0-.45-1.18,3.23,3.23,0,0,0-.93-.82,8.46,8.46,0,0,0-1.12-.57,10.45,10.45,0,0,1-1,1.91c-.51.79-1,1.62-1.45,2.48a9.36,9.36,0,0,0-.92,2.46,1.79,1.79,0,0,0,.6,1.85c-.61.91-1.18,1.81-1.71,2.71l-1.08,1.78a.8.8,0,0,0-.17.15c-.34.61-.7,1.25-1.1,1.91s-.83,1.36-1.32,2.05a24.5,24.5,0,0,1-3,3.56,17.63,17.63,0,0,1-2.93,2.34,9.27,9.27,0,0,1-2.74,1.19,5.16,5.16,0,0,1-2.3.06,2.92,2.92,0,0,1-1.36-.68,3.62,3.62,0,0,1-.87-1.18,5.9,5.9,0,0,1-.45-1.46,6.22,6.22,0,0,1-.09-1.55,22.12,22.12,0,0,0,7.33-3.53,18.86,18.86,0,0,0,5.37-6.12,6.12,6.12,0,0,0,1-2.39,3.58,3.58,0,0,0-.2-2,3,3,0,0,0-1.17-1.35,3.51,3.51,0,0,0-1.89-.5,9.27,9.27,0,0,0-3.37.55,15.1,15.1,0,0,0-3.18,1.55,20.26,20.26,0,0,0-2.74,2.07,15,15,0,0,0-2,2.07,25,25,0,0,0-3.31,5.58c-.08.21-.14.42-.21.63l-.11.17a33.74,33.74,0,0,1-2.11,3.14,18.8,18.8,0,0,1-2.48,2.69,7.69,7.69,0,0,1-2.9,1.64h-.54c-.58,0-.84-.49-.78-1.37a14.09,14.09,0,0,1,.75-3.32q.66-2,1.71-4.42t2.12-4.6c.71-1.46,1.36-2.76,1.94-3.9l1.18-2.34c.48-1,1-2,1.55-3s1-2,1.5-3,.86-1.79,1.21-2.53a16.28,16.28,0,0,0,.7-1.66,1.74,1.74,0,0,0-.13-1.5,4.48,4.48,0,0,0-1.1-1.35,4.92,4.92,0,0,0-1.45-.86,1.54,1.54,0,0,0-1.23-.07c-.22.79-.49,1.65-.82,2.59s-.72,1.93-1.16,3-.91,2.09-1.39,3.17-1,2.15-1.51,3.21c-.79,1.58-1.58,3.14-2.39,4.69s-1.56,3.11-2.27,4.67c-.41.9-.79,1.8-1.14,2.71s-1,1.57-1.51,2.46a33.74,33.74,0,0,1-2.11,3.14,18.29,18.29,0,0,1-2.49,2.69,7.58,7.58,0,0,1-2.89,1.64h-.54c-.58,0-.84-.49-.78-1.37a14.09,14.09,0,0,1,.75-3.32q.66-2,1.71-4.42t2.12-4.6c.71-1.46,1.36-2.76,1.93-3.9s1-1.92,1.19-2.34c.48-1,1-2,1.55-3s1-2,1.5-3,.86-1.79,1.21-2.53a16.28,16.28,0,0,0,.7-1.66,1.77,1.77,0,0,0-.13-1.5,4.48,4.48,0,0,0-1.1-1.35,4.92,4.92,0,0,0-1.45-.86,1.54,1.54,0,0,0-1.23-.07c-.22.79-.49,1.65-.82,2.59s-.72,1.93-1.17,3-.9,2.09-1.38,3.17-1,2.15-1.51,3.21c-.79,1.58-1.58,3.14-2.39,4.69s-1.56,3.11-2.27,4.67c-.37.79-.71,1.59-1,2.4-.3.54-.61,1.09-1,1.67s-.83,1.36-1.32,2.05a23.88,23.88,0,0,1-3,3.56,17.63,17.63,0,0,1-2.93,2.34,9.27,9.27,0,0,1-2.74,1.19,5.16,5.16,0,0,1-2.3.06,2.92,2.92,0,0,1-1.36-.68,3.62,3.62,0,0,1-.87-1.18,5.9,5.9,0,0,1-.45-1.46,6.73,6.73,0,0,1-.09-1.55,22.12,22.12,0,0,0,7.33-3.53,18.75,18.75,0,0,0,5.37-6.12,6.12,6.12,0,0,0,1-2.39,3.58,3.58,0,0,0-.2-2,3,3,0,0,0-1.17-1.35,3.51,3.51,0,0,0-1.89-.5,9.27,9.27,0,0,0-3.37.55,15.1,15.1,0,0,0-3.18,1.55,20.26,20.26,0,0,0-2.74,2.07,15,15,0,0,0-2,2.07,25,25,0,0,0-3.31,5.58,12.73,12.73,0,0,0-.93,5.17,6.26,6.26,0,0,0,1.87,4.46,6.7,6.7,0,0,0,4.83,1.64l1.41,0a10.92,10.92,0,0,0,1.95-.27,10.67,10.67,0,0,0,2.33-.87,11.78,11.78,0,0,0,2.55-1.8,22.25,22.25,0,0,0,2.39-2.48c.71-.87,1.37-1.73,2-2.6l.12-.18c-.17.73-.31,1.46-.42,2.21a9.3,9.3,0,0,0-.16,2.26,5.84,5.84,0,0,0,.41,1.88,3,3,0,0,0,1,1.3,2.92,2.92,0,0,0,1.62.53,5.34,5.34,0,0,0,1.53-.21,8.6,8.6,0,0,0,1.32-.5,7.39,7.39,0,0,0,1.11-.66c.34-.24.61-.46.82-.64a18.39,18.39,0,0,0,2.35-2.32c.71-.85,1.38-1.73,2-2.64.22-.31.41-.65.62-1-.14.65-.27,1.31-.37,2a9.3,9.3,0,0,0-.16,2.26,5.84,5.84,0,0,0,.41,1.88,3,3,0,0,0,1,1.3,2.92,2.92,0,0,0,1.62.53,5.34,5.34,0,0,0,1.53-.21,8.6,8.6,0,0,0,1.32-.5,7.39,7.39,0,0,0,1.11-.66c.34-.24.61-.46.82-.64a18.39,18.39,0,0,0,2.35-2.32c.71-.85,1.38-1.73,2-2.64l.09-.14c0,.35,0,.7,0,1a6.26,6.26,0,0,0,1.87,4.46,6.69,6.69,0,0,0,4.82,1.64l1.42,0a10.92,10.92,0,0,0,2-.27,10.67,10.67,0,0,0,2.33-.87,11.78,11.78,0,0,0,2.55-1.8,23.19,23.19,0,0,0,2.39-2.48c.71-.87,1.36-1.73,2-2.6s1.13-1.69,1.61-2.48.94-1.52,1.37-2.18a1.12,1.12,0,0,0,.05-.13l1.18-1.83c.64-1,1.3-2,2-2.92a2.4,2.4,0,0,0,.46,0h.45c.43,0,.79,0,1.1,0a4.68,4.68,0,0,0,.86-.16l.89-.22a10.75,10.75,0,0,1,1.16-.21c.12,0,.12.08,0,.32a10.46,10.46,0,0,1-.59,1c-.27.41-.61.88-1,1.41s-.79,1.07-1.19,1.62l-1.75,2.37c-.56.75-1.08,1.52-1.55,2.3a13.49,13.49,0,0,0-1.16,2.39,8.42,8.42,0,0,0-.5,2.64,4.48,4.48,0,0,0,.77,2.73,3.14,3.14,0,0,0,2.55,1.28,7.06,7.06,0,0,0,3.28-.62,13.22,13.22,0,0,0,3-1.84,21.14,21.14,0,0,0,2.64-2.55c.82-1,1.55-1.87,2.19-2.78l.17-.28q-.35,1.2-.54,2.19a9.71,9.71,0,0,0-.18,2.23,5.19,5.19,0,0,0,.41,1.87,3.22,3.22,0,0,0,1,1.32,2.86,2.86,0,0,0,1.62.55,5.34,5.34,0,0,0,1.53-.21,8.6,8.6,0,0,0,1.32-.5,7.39,7.39,0,0,0,1.11-.66c.34-.24.61-.46.82-.64a20.36,20.36,0,0,0,2.28-2.27,32,32,0,0,0,2-2.55l-1,2.55q-.91,2.31-1.92,4.53t-2.09,4.25c-.7-.27-1.36-.5-2-.7a16.68,16.68,0,0,0-1.94-.5,21.47,21.47,0,0,0-2.16-.32,26.53,26.53,0,0,0-2.67-.11,14.27,14.27,0,0,0-4.5.7,12.76,12.76,0,0,0-3.78,2,9.91,9.91,0,0,0-2.62,2.95,7.24,7.24,0,0,0-1,3.7,4.32,4.32,0,0,0,.7,2.52,5.42,5.42,0,0,0,1.83,1.66,8.77,8.77,0,0,0,2.52.93,13.78,13.78,0,0,0,2.87.3,17.94,17.94,0,0,0,4.67-.57,15.17,15.17,0,0,0,3.89-1.64,16.35,16.35,0,0,0,3.28-2.62,24.5,24.5,0,0,0,2.83-3.55q1.23.81,2.55,1.77c.88.64,1.85,1.32,2.91,2.05a1.71,1.71,0,0,0,1.12,0,7.18,7.18,0,0,0,1.52-.52,3.45,3.45,0,0,0,1.12-.78c.26-.29.22-.55-.12-.79-1.18-.82-2.38-1.64-3.59-2.44s-2.46-1.56-3.74-2.25q1.1-2,2.12-4.26t2.07-4.81l6.74-16.3a1.91,1.91,0,0,0-.18-1.5A4.78,4.78,0,0,0,1212.87,1012.12Zm-51.74,13.16a18.33,18.33,0,0,1,1.28-3.35,22.54,22.54,0,0,1,2.23-3.66,16.92,16.92,0,0,1,3-3.14,8,8,0,0,1,3.59-1.73c.85-.16,1.38.08,1.6.7a3,3,0,0,1-.32,2.26,17.77,17.77,0,0,1-4.78,5.76,19.29,19.29,0,0,1-6.65,3.34A.39.39,0,0,1,1161.13,1025.28Zm-43.31,0a18.33,18.33,0,0,1,1.28-3.35,22.54,22.54,0,0,1,2.23-3.66,16.92,16.92,0,0,1,3-3.14,8,8,0,0,1,3.59-1.73c.85-.16,1.38.08,1.6.7a3,3,0,0,1-.32,2.26,17.77,17.77,0,0,1-4.78,5.76,19.29,19.29,0,0,1-6.65,3.34A.39.39,0,0,1,1117.82,1025.28Zm77.56,19.65a17.49,17.49,0,0,1-2.8,2.78,13.1,13.1,0,0,1-3.1,1.82,9,9,0,0,1-3.44.66,10.88,10.88,0,0,1-1.91-.18,5.91,5.91,0,0,1-1.84-.64,3.84,3.84,0,0,1-1.39-1.23,3.33,3.33,0,0,1-.55-2,3.81,3.81,0,0,1,.91-2.78,7.68,7.68,0,0,1,2.55-1.93,13.73,13.73,0,0,1,3.42-1.12,18.75,18.75,0,0,1,3.55-.36,20.11,20.11,0,0,1,3.89.41,18.16,18.16,0,0,1,3.26,1A36.32,36.32,0,0,1,1195.38,1044.93Z" transform="translate(-803.09 -676.04)"/></svg>