<svg id="Слой_2" data-name="Слой 2" xmlns="http://www.w3.org/2000/svg" viewBox="0 0 528.72 41.79"><defs><style>.cls-1{fill-rule:evenodd;}</style></defs><title>Vector Smart Object</title><path class="cls-1" d="M867.62,881.48h-66v7.15h27.5V920h11V888.63h27.5v-7.15Zm9.07,38.5h56.87v-7.15H887.42v-9.35h38.44v-6.6H887.42v-8.25h46.14v-7.15H876.69V920Zm69.25,0h10.73V905.13l28.6,0c11.88,0,17.82-3.85,17.82-11.6a10,10,0,0,0-5-9c-3.3-2-7.59-3.08-12.87-3.08H945.94V920Zm10.72-21.18V888.63h28.05c4.4,0,7.15,1.82,7.15,5,0,3.46-2.37,5.22-7.15,5.22Zm66.77,14V881.48h-11V920h56.32v-7.15Zm54.4,7.15h10.73v-38.5h-10.73V920Zm85.8-38.5h-66v7.15h27.5V920h11V888.63h27.5v-7.15Zm37.51,40.15c20,0,30-3.74,30-13.26.06-8.36-9.13-10.94-19.47-11.55-13.92-1.15-30,.72-30-5.11-.06-1.71,1.21-3,3.68-3.79s6.87-1.21,13.2-1.21a88.25,88.25,0,0,1,15.9,1.49c5.45,1,9.13,2.47,11,4.45h3v-9q-12-3.79-30.64-3.79c-18.31,0-27.5,4-27.5,12.1-.05,10,12.32,11.55,24.47,12s24.53-.39,24.48,4.51c0,4.13-5.12,6.27-17.44,6.27a80.59,80.59,0,0,1-19.36-1.92,40.21,40.21,0,0,1-12.38-5.44l-.77,8.14c6.33,3.66,17.71,6.08,31.74,6.08Zm93.39-1.65h16l-34.76-23,33.33-15.51h-17.6l-35.58,16.83V881.48H1245.2V920h10.73V906.23l11.5-5.34,27.1,19.09Zm25.08,0h10.73v-38.5h-10.73Z" transform="translate(-801.62 -879.84)"/></svg>